<mxfile host="app.diagrams.net" modified="2024-03-25T15:58:45.694Z" agent="Mozilla/5.0 (Windows NT 10.0; Win64; x64) AppleWebKit/537.36 (KHTML, like Gecko) Chrome/122.0.0.0 Safari/537.36" version="24.0.1" etag="5HYpjt1TU6qX-SOHLOmC" type="github">
  <diagram name="PÃ¡gina-1" id="GWZaLR5yR6y0Pq2lNc_a">
    <mxGraphModel>
      <root>
        <mxCell id="0" />
        <mxCell id="1" parent="0" />
      </root>
    </mxGraphModel>
  </diagram>
</mxfile>
